<svg width="20" height="20" viewBox="0 0 20 20" fill="none" xmlns="http://www.w3.org/2000/svg">
<path d="M12.5 5.83333V17.5M15 9.16667H15.0083M15 11.6667H15.0083M15 14.1667H15.0083M14.1667 2.5L10 5.83333L5.83333 2.5M6.5 17.5H13.5C14.9002 17.5 15.6002 17.5 16.135 17.2275C16.6054 16.9878 16.9878 16.6054 17.2275 16.135C17.5 15.6002 17.5 14.9002 17.5 13.5V9.83333C17.5 8.43317 17.5 7.73313 17.2275 7.19836C16.9878 6.72795 16.6054 6.3455 16.135 6.10582C15.6002 5.83333 14.9002 5.83333 13.5 5.83333H6.5C5.09987 5.83333 4.3998 5.83333 3.86503 6.10582C3.39462 6.3455 3.01217 6.72795 2.77248 7.19836C2.5 7.73313 2.5 8.43317 2.5 9.83333V13.5C2.5 14.9002 2.5 15.6002 2.77248 16.135C3.01217 16.6054 3.39462 16.9878 3.86503 17.2275C4.3998 17.5 5.09987 17.5 6.5 17.5Z" stroke="black" stroke-width="1.5" stroke-linecap="round" stroke-linejoin="round"/>
</svg>
