<svg width="32" height="32" viewBox="0 0 32 32" fill="none" xmlns="http://www.w3.org/2000/svg">
<rect width="32" height="32" rx="16" fill="#F1F1EF"/>
<path d="M25.1328 15.8537H7.49171V8.49423C7.49171 7.77059 8.0691 7.18553 8.78325 7.18553C9.14792 7.18553 9.4974 7.33949 9.72532 7.60123C9.04156 8.30947 8.87442 9.41802 9.39103 10.3264C9.4974 10.5112 9.69493 10.6189 9.89246 10.6189C9.99882 10.6189 10.09 10.5881 10.1812 10.542L13.0682 8.84835C13.3417 8.67898 13.448 8.32486 13.2809 8.04773C12.977 7.52425 12.4908 7.13934 11.9134 6.98537C11.5183 6.8776 11.1232 6.8776 10.7434 6.98537C10.2875 6.36951 9.55818 6 8.78325 6C7.43092 6 6.32172 7.12395 6.32172 8.49423V15.8691C5.63795 15.8999 5.09094 16.5004 5.09094 17.2395C5.09094 17.9168 5.56198 18.4865 6.18496 18.5943V19.6105C6.18496 21.9045 7.65884 23.8599 9.67973 24.5681L9.36065 25.107C9.19351 25.3842 9.28468 25.7536 9.57337 25.923C9.66454 25.9846 9.77091 26 9.86207 26C10.0596 26 10.2571 25.8922 10.3635 25.7075L10.8041 24.953C10.8041 24.953 10.8497 24.8606 10.8649 24.8145C11.0169 24.8299 11.184 24.8453 11.336 24.8453H20.24C20.3768 24.8453 20.5136 24.8453 20.6503 24.8299C20.6503 24.8761 20.6807 24.9068 20.711 24.953L21.1518 25.7075C21.2581 25.8922 21.4556 26 21.6531 26C21.7595 26 21.8507 25.9692 21.9419 25.923C22.2153 25.7536 22.3065 25.3995 22.1546 25.107L21.8507 24.5835C23.9171 23.8907 25.4062 21.9199 25.4062 19.6105V18.5789C25.9837 18.4404 26.4091 17.8861 26.4091 17.2395C26.4091 16.485 25.8317 15.8691 25.1176 15.8691L25.1328 15.8537ZM10.2875 8.89454C10.3635 8.6174 10.5458 8.37105 10.789 8.23249C10.9561 8.14011 11.1384 8.07852 11.3208 8.07852C11.4119 8.07852 11.5031 8.07852 11.6095 8.10932C11.6854 8.12471 11.7614 8.1555 11.8374 8.20169L10.2571 9.12548C10.2571 9.0485 10.2723 8.97152 10.2875 8.89454ZM25.1328 17.4242H22.4889C22.1698 17.4242 21.9115 17.6859 21.9115 18.0093C21.9115 18.3325 22.1698 18.5943 22.4889 18.5943H24.2514V19.5951C24.2514 21.8275 22.4585 23.6444 20.2552 23.6444H11.3512C9.14792 23.6444 7.35495 21.8275 7.35495 19.5951V18.5943H19.4348C19.7539 18.5943 20.0121 18.3325 20.0121 18.0093C20.0121 17.6859 19.7539 17.4242 19.4348 17.4242H6.38249C6.38249 17.4242 6.24574 17.3472 6.24574 17.224C6.24574 17.1008 6.30652 17.0393 6.38249 17.0393H25.1328C25.1328 17.0393 25.2695 17.1163 25.2695 17.224C25.2695 17.3318 25.1935 17.4242 25.1328 17.4242Z" fill="#263238"/>
<path d="M20.9542 18.61C21.2731 18.61 21.5316 18.3481 21.5316 18.025C21.5316 17.7019 21.2731 17.4399 20.9542 17.4399C20.6353 17.4399 20.3768 17.7019 20.3768 18.025C20.3768 18.3481 20.6353 18.61 20.9542 18.61Z" fill="#263238"/>
</svg>
