<svg width="32" height="32" viewBox="0 0 32 32" fill="none" xmlns="http://www.w3.org/2000/svg">
<rect width="32" height="32" rx="16" fill="#F1F1EF"/>
<path d="M23.9201 15.8286V9.88571C23.9201 8.84286 23.1164 8 22.1222 8H9.91864C8.92438 8 8.12079 8.84286 8.12079 9.88571V15.8143C7.14014 16.5 6.5 17.6571 6.5 18.9857V23.4429C6.5 23.7429 6.74516 24 7.03118 24C7.31721 24 7.56237 23.7429 7.56237 23.4429V22.7714H24.4377V23.3C24.4377 23.6143 24.6828 23.8571 24.9688 23.8571C25.2548 23.8571 25.5 23.6143 25.5 23.3V18.9714C25.5 17.6571 24.8735 16.5143 23.9065 15.8143L23.9201 15.8286ZM9.19677 9.88571C9.19677 9.45714 9.52365 9.11429 9.93226 9.11429H22.1222C22.5309 9.11429 22.8577 9.45714 22.8577 9.88571V15.3143C22.5717 15.2286 22.2721 15.1857 21.9588 15.1857V12.8429C21.9588 12.5286 21.7136 12.2857 21.4276 12.2857H17.0147C16.715 12.2857 16.4836 12.5286 16.4836 12.8429V15.1714H15.5846V12.8429C15.5846 12.5286 15.3531 12.2857 15.0534 12.2857H10.6269C10.3409 12.2857 10.0957 12.5286 10.0957 12.8429V15.1714C9.78244 15.1714 9.48279 15.2143 9.19677 15.3V9.88571ZM17.5459 15.1714V13.4H20.8964V15.1714H17.5459ZM14.5086 13.4V15.1714H11.1581V13.4H14.5086ZM24.4513 19.2571H21.6455C21.3459 19.2571 21.1143 19.5143 21.1143 19.8143C21.1143 20.1143 21.3459 20.3714 21.6455 20.3714H24.4513V21.6571H7.56237V20.3714H18.8262C19.1258 20.3714 19.3574 20.1286 19.3574 19.8143C19.3574 19.5 19.1258 19.2571 18.8262 19.2571H7.56237V18.9714C7.56237 17.4857 8.70645 16.2857 10.1229 16.2857H21.8771C23.2935 16.2857 24.4377 17.4857 24.4377 18.9714V19.2571H24.4513Z" fill="#263238"/>
<path d="M20.2294 20.3854C20.5226 20.3854 20.7602 20.1361 20.7602 19.8287C20.7602 19.5211 20.5226 19.2719 20.2294 19.2719C19.9363 19.2719 19.6986 19.5211 19.6986 19.8287C19.6986 20.1361 19.9363 20.3854 20.2294 20.3854Z" fill="#263238"/>
</svg>
