<svg width="20" height="20" viewBox="0 0 20 20" fill="none" xmlns="http://www.w3.org/2000/svg">
<path d="M2.5 4.16675V15.8334M2.5 13.3334H17.5M17.5 15.8334V11.0001C17.5 10.0667 17.5 9.59991 17.3183 9.24341C17.1586 8.92983 16.9036 8.67483 16.59 8.51508C16.2335 8.33341 15.7667 8.33341 14.8333 8.33341H9.16667V13.1062M5.83333 10.0001H5.84167M6.66667 10.0001C6.66667 10.4603 6.29357 10.8334 5.83333 10.8334C5.3731 10.8334 5 10.4603 5 10.0001C5 9.53983 5.3731 9.16675 5.83333 9.16675C6.29357 9.16675 6.66667 9.53983 6.66667 10.0001Z" stroke="black" stroke-width="1.5" stroke-linecap="round" stroke-linejoin="round"/>
</svg>
