<svg width="20" height="20" viewBox="0 0 20 20" fill="none" xmlns="http://www.w3.org/2000/svg">
<path d="M6.80835 1.25H13.1833V6.83333C13.1768 7.67403 12.8387 8.47819 12.2427 9.07111C11.6467 9.66403 10.8407 9.99783 10 10C9.15785 10 8.3498 9.6672 7.75196 9.07404C7.15412 8.48088 6.81495 7.67548 6.80835 6.83333V1.25Z" stroke="#020202" stroke-width="1.5" stroke-miterlimit="10"/>
<path d="M6.80835 4.44165H15.5833" stroke="#020202" stroke-width="1.5" stroke-miterlimit="10"/>
<path d="M3.62502 19.5833V16.3917C3.62283 15.5531 3.78611 14.7223 4.1055 13.9469C4.42489 13.1716 4.89412 12.4668 5.48631 11.8731C6.07851 11.2793 6.78202 10.8083 7.55656 10.4869C8.3311 10.1654 9.16144 10 10 10C11.6908 10 13.3123 10.6716 14.5078 11.8672C15.7034 13.0627 16.375 14.6842 16.375 16.375V19.5833" stroke="#020202" stroke-width="1.5" stroke-miterlimit="10"/>
<path d="M7.60828 14.8H9.19994" stroke="#020202" stroke-width="1.5" stroke-miterlimit="10"/>
<path d="M7.60828 17.9917H9.19994" stroke="#020202" stroke-width="1.5" stroke-miterlimit="10"/>
<path d="M7.44165 10.55L10.8 13.2084V19.5834" stroke="#020202" stroke-width="1.5" stroke-miterlimit="10"/>
</svg>
