<svg width="20" height="20" viewBox="0 0 20 20" fill="none" xmlns="http://www.w3.org/2000/svg">
<g clip-path="url(#clip0_93_430)">
<path d="M19.7448 8.69413L19.3332 8.28204C18.9941 7.94212 18.4421 7.94212 18.1035 8.28204L16.3912 9.99428H10.4516C10.0669 9.99428 9.75484 10.3064 9.75484 10.6911V13.7104H0.869811C0.389481 13.7109 0 14.0999 0 14.5807V15.1632C0 15.6431 0.389481 16.033 0.869811 16.033H3.15323L1.41621 18.0434C1.16409 18.3346 1.1967 18.775 1.4875 19.0262C1.61921 19.1401 1.78135 19.1966 1.94306 19.1966C2.13823 19.1966 2.33254 19.1149 2.47033 18.9549L4.19213 16.9623H12.2534L14.0691 18.7785C14.3412 19.0501 14.7824 19.0501 15.0546 18.7785C15.3267 18.5068 15.3267 18.0647 15.0546 17.7926L13.2949 16.033H15.388C15.8679 16.033 16.2582 15.6435 16.2582 15.1632V14.5807C16.2582 14.2638 16.0861 13.9891 15.8326 13.8369L19.7448 9.92473C20.0848 9.5848 20.0848 9.03405 19.7448 8.69413ZM11.148 11.3879H14.9967L12.7251 13.7113H11.1471V11.3879H11.148Z" fill="black"/>
<path d="M5.40361 2.01731V1.77258C5.40361 1.66434 5.37188 1.55915 5.31624 1.46699L4.97979 0.907113C4.94111 0.842779 4.87069 0.803223 4.79592 0.803223C4.72115 0.803223 4.65117 0.842779 4.61248 0.907113L4.27647 1.46699C4.22126 1.55915 4.19214 1.66477 4.19214 1.77258V2.01687C4.39383 1.9821 4.59205 1.96427 4.79809 1.96427C5.00414 1.96427 5.20148 1.9821 5.40361 2.01731Z" fill="black"/>
<path d="M4.19177 8.84448V9.08878C4.19177 9.19658 4.2209 9.30221 4.2761 9.39436L4.61212 9.95424C4.6508 10.0186 4.72035 10.0581 4.79555 10.0581C4.87032 10.0581 4.93944 10.0186 4.97856 9.95424L5.31631 9.39436C5.37195 9.30221 5.40368 9.19658 5.40368 9.08878V8.84448C5.20155 8.87926 5.00334 8.89751 4.79729 8.89751C4.59125 8.89751 4.39303 8.87926 4.19177 8.84448Z" fill="black"/>
<path d="M7.63411 3.44474L7.80842 3.27043C7.88449 3.19479 7.93882 3.09916 7.96447 2.99484L8.1227 2.3615C8.14095 2.28847 8.11965 2.21109 8.06662 2.1585C8.01359 2.10503 7.93665 2.08417 7.86362 2.10242L7.23028 2.26065C7.12596 2.28673 7.03076 2.34063 6.95426 2.4167L6.78125 2.59145C7.11248 2.824 7.40155 3.11307 7.63411 3.44474Z" fill="black"/>
<path d="M1.9557 7.41699L1.78183 7.59087C1.70576 7.6665 1.65142 7.76213 1.62534 7.86646L1.46711 8.50024C1.44886 8.57283 1.47016 8.64977 1.52319 8.70237C1.57622 8.75583 1.65272 8.77713 1.72619 8.75844L2.35953 8.60021C2.46385 8.57413 2.55905 8.52023 2.63512 8.44373L2.80899 8.26985C2.47689 8.03729 2.18783 7.74822 1.9557 7.41699Z" fill="black"/>
<path d="M1.13677 6.04213H1.38106C1.34672 5.84043 1.32846 5.64134 1.32846 5.43574C1.32846 5.22969 1.34672 5.03148 1.38106 4.82935H1.13677C1.02896 4.82935 0.923335 4.85717 0.831181 4.91237L0.271302 5.24752C0.206969 5.28577 0.167847 5.35532 0.167847 5.43008C0.167847 5.50529 0.206969 5.57484 0.271302 5.61309L0.831181 5.95301C0.923335 6.00865 1.02896 6.04213 1.13677 6.04213Z" fill="black"/>
<path d="M9.31845 5.24752L8.75813 4.91237C8.66641 4.85717 8.56078 4.82935 8.45298 4.82935H8.20825C8.24303 5.03104 8.26128 5.22926 8.26128 5.43574C8.26128 5.64134 8.24303 5.84 8.20825 6.04213H8.45298C8.56078 6.04213 8.66641 6.00865 8.75813 5.95388L9.31845 5.61613C9.38278 5.57788 9.4219 5.50702 9.4219 5.43226C9.4219 5.35662 9.38278 5.2862 9.31845 5.24752Z" fill="black"/>
<path d="M1.62535 2.99483C1.65187 3.09915 1.70577 3.19478 1.7814 3.27042L1.95528 3.44429C2.18784 3.11306 2.4769 2.82356 2.80857 2.591L2.6347 2.41713C2.55863 2.34106 2.46343 2.28672 2.3591 2.26064L1.7262 2.10285C1.65274 2.08416 1.5758 2.10546 1.52276 2.15892C1.46973 2.21195 1.44887 2.28889 1.46669 2.36149L1.62535 2.99483Z" fill="black"/>
<path d="M7.96447 7.86684C7.93839 7.76208 7.88449 7.66688 7.80842 7.59081L7.63411 7.4165C7.40155 7.74817 7.11248 8.03724 6.78125 8.2698L6.95513 8.44411C7.0312 8.52018 7.12639 8.57408 7.23115 8.60059L7.86406 8.75882C7.93709 8.77708 8.01403 8.75621 8.06706 8.70275C8.12009 8.64971 8.14095 8.57277 8.12357 8.50018L7.96447 7.86684Z" fill="black"/>
<path d="M6.76037 2.28629C6.80166 2.18719 6.81557 2.07808 6.79949 1.97158L6.70516 1.32563C6.69429 1.25174 6.64517 1.18827 6.57606 1.15958C6.50694 1.13046 6.4274 1.14046 6.36741 1.18479L5.84187 1.5721C5.75537 1.636 5.68756 1.72207 5.64626 1.82161L5.55237 2.04722C5.95402 2.1372 6.32959 2.29673 6.66604 2.5132L6.76037 2.28629Z" fill="black"/>
<path d="M2.83029 8.57491C2.789 8.67402 2.77552 8.78313 2.79074 8.88963L2.88593 9.53558C2.89636 9.60947 2.94592 9.67294 3.0146 9.70163C3.08415 9.73075 3.16326 9.72075 3.22368 9.67641L3.74879 9.28911C3.83529 9.22521 3.9031 9.1387 3.94483 9.0396L4.03829 8.81356C3.63664 8.72401 3.26063 8.56448 2.92462 8.34888L2.83029 8.57491Z" fill="black"/>
<path d="M7.72058 3.5739C7.93532 3.91078 8.09311 4.28766 8.18092 4.69018L8.40739 4.59629C8.50693 4.55586 8.59343 4.48848 8.6582 4.40198L9.04768 3.87775C9.09246 3.81776 9.10245 3.73865 9.07377 3.66953C9.04551 3.60042 8.98248 3.55086 8.90815 3.53956L8.26307 3.44219C8.15657 3.42567 8.0479 3.43915 7.94836 3.47957L7.72058 3.5739Z" fill="black"/>
<path d="M1.86872 7.28704C1.65442 6.95016 1.49663 6.57372 1.40839 6.17163L1.18191 6.26465C1.08237 6.30551 0.995867 6.37289 0.931533 6.45896L0.542052 6.98276C0.497279 7.04275 0.487716 7.12186 0.515971 7.19141C0.544226 7.26096 0.607256 7.30964 0.681153 7.32138L1.32666 7.41919C1.43316 7.43527 1.54227 7.42179 1.64138 7.38093L1.86872 7.28704Z" fill="black"/>
<path d="M8.65345 6.47719C8.58955 6.39026 8.50305 6.32331 8.4035 6.28115L8.17747 6.18726C8.08792 6.58891 7.92839 6.96448 7.71191 7.30093L7.93882 7.39569C8.03793 7.43698 8.14704 7.45089 8.25354 7.43525L8.89948 7.34092C8.97381 7.33005 9.03684 7.28093 9.06597 7.21138C9.09466 7.1427 9.08509 7.06315 9.04076 7.00273L8.65345 6.47719Z" fill="black"/>
<path d="M0.936853 4.38423C1.00075 4.47117 1.08726 4.53811 1.18636 4.58027L1.41197 4.67417C1.50195 4.27251 1.66148 3.89651 1.87752 3.56049L1.65105 3.46573C1.55194 3.42444 1.44283 3.41053 1.33633 3.42618L0.68995 3.5205C0.616053 3.53137 0.553024 3.58049 0.523899 3.65004C0.49521 3.71872 0.505208 3.79827 0.549111 3.85869L0.936853 4.38423Z" fill="black"/>
<path d="M2.93857 2.50468C3.27502 2.28995 3.65189 2.13216 4.05441 2.04391L3.96096 1.81788C3.9201 1.71833 3.85272 1.63226 3.76665 1.56793L3.24242 1.17845C3.18287 1.13324 3.10332 1.12368 3.0342 1.15193C2.96509 1.18019 2.91553 1.24322 2.90467 1.31755L2.80686 1.96263C2.79078 2.06913 2.80382 2.17823 2.84468 2.27734L2.93857 2.50468Z" fill="black"/>
<path d="M6.65161 8.35645C6.31473 8.57118 5.93829 8.72897 5.53577 8.81721L5.62922 9.04369C5.67052 9.14323 5.73746 9.2293 5.82353 9.29363L6.34733 9.68355C6.40775 9.72876 6.48643 9.73832 6.55598 9.70963C6.62553 9.68137 6.67421 9.61878 6.68595 9.54445L6.78332 8.89894C6.79984 8.79287 6.78636 8.68376 6.7455 8.58422L6.65161 8.35645Z" fill="black"/>
<path d="M4.79425 8.29383C6.37536 8.29383 7.65711 7.01208 7.65711 5.43097C7.65711 3.84986 6.37536 2.56812 4.79425 2.56812C3.21314 2.56812 1.9314 3.84986 1.9314 5.43097C1.9314 7.01208 3.21314 8.29383 4.79425 8.29383Z" fill="black"/>
</g>
<defs>
<clipPath id="clip0_93_430">
<rect width="20" height="20" fill="white"/>
</clipPath>
</defs>
</svg>
