<svg width="20" height="20" viewBox="0 0 20 20" fill="none" xmlns="http://www.w3.org/2000/svg">
<g clip-path="url(#clip0_92_244)">
<path d="M19.1183 5.69754L17.3 3.87837L18.0891 3.08921C18.1687 3.01234 18.2322 2.92038 18.2759 2.81871C18.3196 2.71704 18.3425 2.60769 18.3435 2.49704C18.3445 2.38639 18.3234 2.27666 18.2815 2.17425C18.2396 2.07183 18.1777 1.97879 18.0995 1.90055C18.0212 1.8223 17.9282 1.76042 17.8258 1.71852C17.7233 1.67662 17.6136 1.65554 17.503 1.6565C17.3923 1.65746 17.283 1.68045 17.1813 1.72412C17.0796 1.7678 16.9877 1.83128 16.9108 1.91087L16.1216 2.70004L14.3025 0.881708C13.7291 0.33531 12.9674 0.0305176 12.1754 0.0305176C11.3833 0.0305176 10.6217 0.33531 10.0483 0.881708C9.76876 1.16101 9.54701 1.49267 9.39571 1.85772C9.24442 2.22276 9.16654 2.61405 9.16654 3.00921C9.16654 3.40437 9.24442 3.79565 9.39571 4.1607C9.54701 4.52575 9.76876 4.8574 10.0483 5.13671L11.8666 6.95504L6.95496 11.8667L5.1358 10.0484C4.56241 9.50198 3.80075 9.19718 3.00871 9.19718C2.21668 9.19718 1.45502 9.50198 0.881631 10.0484C0.602096 10.3277 0.380344 10.6593 0.229047 11.0244C0.0777514 11.3894 -0.00012207 11.7807 -0.00012207 12.1759C-0.00012207 12.571 0.0777514 12.9623 0.229047 13.3274C0.380344 13.6924 0.602096 14.0241 0.881631 14.3034L2.69996 16.1217L1.9108 16.9109C1.83121 16.9877 1.76772 17.0797 1.72405 17.1814C1.68037 17.283 1.65738 17.3924 1.65642 17.503C1.65546 17.6137 1.67655 17.7234 1.71845 17.8258C1.76035 17.9282 1.82222 18.0213 1.90047 18.0995C1.97871 18.1778 2.07176 18.2397 2.17417 18.2816C2.27658 18.3235 2.38632 18.3445 2.49697 18.3436C2.60761 18.3426 2.71696 18.3196 2.81863 18.276C2.9203 18.2323 3.01226 18.1688 3.08913 18.0892L3.8783 17.3L5.69746 19.1184C5.97675 19.3978 6.30836 19.6194 6.67333 19.7707C7.0383 19.9219 7.42949 19.9997 7.82455 19.9997C8.21961 19.9997 8.6108 19.9219 8.97577 19.7707C9.34074 19.6194 9.67234 19.3978 9.95163 19.1184C10.2311 18.8391 10.4529 18.5076 10.6042 18.1426C10.7554 17.7776 10.8333 17.3864 10.8333 16.9913C10.8333 16.5962 10.7554 16.205 10.6042 15.84C10.4529 15.475 10.2311 15.1434 9.95163 14.8642L8.1333 13.0459L13.05 8.13337L14.8683 9.95171C15.1476 10.2311 15.4792 10.4528 15.8442 10.604C16.2091 10.7552 16.6003 10.833 16.9954 10.833C17.3904 10.833 17.7816 10.7552 18.1466 10.604C18.5116 10.4528 18.8432 10.2311 19.1225 9.95171C19.402 9.67247 19.6237 9.34089 19.775 8.97591C19.9263 8.61093 20.0041 8.21972 20.0041 7.82462C20.0041 7.42953 19.9263 7.03832 19.775 6.67334C19.6237 6.30836 19.402 5.97678 19.1225 5.69754H19.1183ZM9.16663 16.9917C9.16699 17.1679 9.13241 17.3425 9.0649 17.5052C8.99739 17.668 8.89828 17.8158 8.7733 17.94C8.51787 18.1844 8.17802 18.3208 7.82455 18.3208C7.47107 18.3208 7.13122 18.1844 6.8758 17.94L2.05996 13.1242C1.80834 12.8726 1.66698 12.5313 1.66698 12.1755C1.66698 11.8196 1.80834 11.4783 2.05996 11.2267C2.31159 10.9751 2.65286 10.8337 3.00871 10.8337C3.36456 10.8337 3.70584 10.9751 3.95746 11.2267L8.7733 16.0425C8.89838 16.1669 8.99755 16.3148 9.06506 16.4777C9.13258 16.6406 9.1671 16.8153 9.16663 16.9917ZM17.94 8.77337C17.6845 9.01772 17.3447 9.15409 16.9912 9.15409C16.6377 9.15409 16.2979 9.01772 16.0425 8.77337L11.2266 3.95754C11.102 3.83295 11.0032 3.68504 10.9358 3.52225C10.8684 3.35946 10.8336 3.18499 10.8336 3.00879C10.8336 2.83259 10.8684 2.65812 10.9358 2.49533C11.0032 2.33254 11.102 2.18463 11.2266 2.06004C11.3512 1.93545 11.4991 1.83662 11.6619 1.76919C11.8247 1.70176 11.9992 1.66706 12.1754 1.66706C12.3516 1.66706 12.5261 1.70176 12.6888 1.76919C12.8516 1.83662 12.9995 1.93545 13.1241 2.06004L17.94 6.87587C18.0647 7.00041 18.1636 7.1483 18.2311 7.31109C18.2986 7.47389 18.3333 7.64839 18.3333 7.82462C18.3333 8.00086 18.2986 8.17536 18.2311 8.33816C18.1636 8.50095 18.0647 8.64884 17.94 8.77337Z" fill="black"/>
</g>
<defs>
<clipPath id="clip0_92_244">
<rect width="20" height="20" fill="white"/>
</clipPath>
</defs>
</svg>
