<svg width="20" height="20" viewBox="0 0 20 20" fill="none" xmlns="http://www.w3.org/2000/svg">
<g clip-path="url(#clip0_96_723)">
<path d="M0.403241 16.1727C0.707147 16.1727 0.838983 16.2392 1.02133 16.3311C1.23761 16.4402 1.50679 16.5759 2.00254 16.5759C2.49828 16.5759 2.76746 16.4402 2.98374 16.3311C3.16613 16.2392 3.29792 16.1727 3.60191 16.1727C3.90585 16.1727 4.03769 16.2392 4.22011 16.3311C4.4364 16.4402 4.70558 16.5759 5.20136 16.5759C5.69714 16.5759 5.96632 16.4402 6.18261 16.3312C6.36503 16.2392 6.49682 16.1727 6.80085 16.1727C7.10479 16.1727 7.23659 16.2392 7.41901 16.3311C7.6353 16.4402 7.90452 16.5759 8.40026 16.5759C8.896 16.5759 9.16514 16.4402 9.38143 16.3311C9.56381 16.2392 9.69561 16.1727 9.99947 16.1727C10.3034 16.1727 10.4352 16.2392 10.6177 16.3311C10.834 16.4402 11.1031 16.5759 11.5989 16.5759C12.0947 16.5759 12.3639 16.4402 12.5802 16.3311C12.7626 16.2392 12.8944 16.1727 13.1984 16.1727C13.5024 16.1727 13.6342 16.2392 13.8167 16.3312C14.0329 16.4402 14.3022 16.5759 14.7979 16.5759C15.2937 16.5759 15.5629 16.4402 15.7792 16.3312C15.9616 16.2392 16.0934 16.1727 16.3975 16.1727C16.7015 16.1727 16.8334 16.2392 17.0158 16.3312C17.2321 16.4402 17.5013 16.5759 17.9972 16.5759C18.493 16.5759 18.7622 16.4402 18.9786 16.3312C19.161 16.2392 19.2928 16.1727 19.5969 16.1727C19.8195 16.1727 20.0001 15.9922 20.0001 15.7695C20.0001 15.5468 19.8196 15.3662 19.5969 15.3662C19.5773 15.3662 19.5588 15.3668 19.54 15.3672V2.15031C19.54 1.92766 19.3595 1.74707 19.1368 1.74707H17.5239C17.3012 1.74707 17.1206 1.92762 17.1206 2.15031V3.03742H3.00765V2.15031C3.00765 1.92766 2.82714 1.74707 2.60441 1.74707H0.991522C0.768827 1.74707 0.58828 1.92762 0.58828 2.15031V15.3731C0.530233 15.3687 0.468788 15.3662 0.403202 15.3662C0.180507 15.3662 0 15.5468 0 15.7694C0 15.9921 0.180507 16.1727 0.403241 16.1727ZM17.927 2.55351H18.7334V15.5529C18.692 15.5725 18.6528 15.5922 18.6154 15.611C18.433 15.703 18.3011 15.7695 17.997 15.7695C17.9725 15.7695 17.9494 15.7688 17.927 15.768V2.55351ZM7.2462 14.1417C7.33831 14.3117 7.39913 14.424 7.39913 14.6939C7.39913 14.9639 7.33827 15.0761 7.24624 15.2461C7.22116 15.2924 7.19479 15.3418 7.16885 15.3951C7.06135 15.3773 6.9403 15.3662 6.80081 15.3662C6.42874 15.3662 6.18432 15.4427 5.99405 15.5269C6.09151 15.3368 6.18948 15.0925 6.18948 14.6939C6.18952 14.2196 6.05073 13.9634 5.93921 13.7575C5.8471 13.5875 5.78632 13.4752 5.78632 13.2053C5.78632 12.9354 5.84718 12.8231 5.93921 12.6532C6.05073 12.4474 6.18952 12.1912 6.18952 11.7169C6.18952 11.2425 6.05073 10.9864 5.93921 10.7805C5.8471 10.6106 5.78632 10.4983 5.78632 10.2284C5.78632 9.9585 5.84718 9.84616 5.93921 9.67623C6.01405 9.53811 6.10116 9.37733 6.15038 9.14319H7.32249C7.30073 9.19159 7.27503 9.23901 7.24628 9.29206C7.13475 9.49788 6.99596 9.75405 6.99596 10.2284C6.99596 10.7027 7.13475 10.9588 7.24628 11.1647C7.33838 11.3347 7.39917 11.447 7.39917 11.7169C7.39917 11.9867 7.33831 12.0991 7.24628 12.269C7.13475 12.4748 6.99596 12.731 6.99596 13.2053C6.99592 13.6796 7.13471 13.9358 7.2462 14.1417ZM5.78628 8.33671C5.56358 8.33671 5.38304 8.51725 5.38304 8.73995C5.38304 9.00983 5.32218 9.12213 5.23015 9.29206C5.21741 9.31557 5.20429 9.33987 5.19108 9.36495H4.89921V7.75206H8.52823V9.36495H8.10272C8.16135 9.20604 8.20561 9.0078 8.20561 8.73995C8.20561 8.51725 8.0251 8.33671 7.80237 8.33671H5.78628ZM11.9354 8.73991C11.9354 9.00979 11.8746 9.1221 11.7826 9.29202C11.7698 9.31553 11.7567 9.33983 11.7435 9.36491H11.4516V7.75202H15.0806V9.36491H14.6551C14.7138 9.206 14.758 9.00776 14.758 8.73991C14.758 8.51721 14.5775 8.33667 14.3548 8.33667H12.3386C12.116 8.33671 11.9354 8.51725 11.9354 8.73991ZM13.7986 14.1417C13.8907 14.3117 13.9515 14.424 13.9515 14.6939C13.9515 14.9639 13.8907 15.0761 13.7986 15.2461C13.769 15.3008 13.7375 15.3592 13.7072 15.4242C13.5677 15.3895 13.4024 15.3663 13.1983 15.3663C12.9391 15.3663 12.7422 15.4035 12.582 15.4545C12.6664 15.2747 12.7419 15.0437 12.7419 14.694C12.7419 14.2195 12.6032 13.9634 12.4917 13.7575C12.3995 13.5875 12.3387 13.4752 12.3387 13.2053C12.3387 12.9354 12.3996 12.8231 12.4916 12.6532C12.6031 12.4474 12.7419 12.1912 12.7419 11.7169C12.7419 11.2425 12.6031 10.9864 12.4916 10.7805C12.3995 10.6106 12.3387 10.4983 12.3387 10.2284C12.3387 9.9585 12.3996 9.84616 12.4917 9.67623C12.5665 9.53811 12.6536 9.37733 12.7028 9.14319H13.8749C13.8532 9.19159 13.8274 9.23901 13.7987 9.29206C13.6872 9.49788 13.5484 9.75405 13.5484 10.2284C13.5484 10.7027 13.6872 10.9588 13.7987 11.1647C13.8908 11.3347 13.9516 11.447 13.9516 11.7169C13.9516 11.9867 13.8907 12.0991 13.7986 12.269C13.6872 12.4748 13.5484 12.731 13.5484 13.2053C13.5483 13.6796 13.6871 13.9358 13.7986 14.1417ZM3.00769 5.51413H10.0641C10.2868 5.51413 10.4674 5.33359 10.4674 5.11089C10.4674 4.88824 10.2868 4.70765 10.0641 4.70765H3.00769V3.84382H17.1205V4.70765H13.8978C13.6752 4.70765 13.4946 4.8882 13.4946 5.11089C13.4946 5.33355 13.6751 5.51413 13.8978 5.51413H17.1205V15.4923C16.9426 15.4229 16.7173 15.3663 16.3973 15.3663C15.9015 15.3663 15.6323 15.502 15.416 15.611C15.2336 15.703 15.1018 15.7695 14.7978 15.7695C14.6526 15.7695 14.5468 15.7542 14.4559 15.7283C14.4717 15.6968 14.489 15.6648 14.5076 15.6304C14.6192 15.4245 14.7579 15.1683 14.7579 14.694C14.7579 14.2196 14.6192 13.9634 14.5076 13.7575C14.4155 13.5875 14.3547 13.4752 14.3547 13.2053C14.3547 12.9354 14.4156 12.8231 14.5076 12.6532C14.6191 12.4474 14.7579 12.1912 14.7579 11.7169C14.7579 11.2425 14.6191 10.9864 14.5076 10.7805C14.4155 10.6106 14.3547 10.4983 14.3547 10.2284C14.3547 10.2085 14.3551 10.1897 14.3558 10.1714H15.4838C15.7064 10.1714 15.887 9.99084 15.887 9.76815V7.34882C15.887 7.12616 15.7065 6.94558 15.4838 6.94558H11.0484C10.8257 6.94558 10.6451 7.12612 10.6451 7.34882V9.76815C10.6451 9.9908 10.8257 10.1714 11.0484 10.1714H11.5333C11.5329 10.1902 11.5322 10.2088 11.5322 10.2284C11.5322 10.7027 11.671 10.9588 11.7826 11.1647C11.8746 11.3347 11.9354 11.447 11.9354 11.7169C11.9354 11.9867 11.8746 12.0991 11.7825 12.269C11.671 12.4748 11.5322 12.731 11.5322 13.2053C11.5322 13.6796 11.671 13.9358 11.7825 14.1417C11.8746 14.3117 11.9354 14.424 11.9354 14.694C11.9354 14.9639 11.8746 15.0762 11.7825 15.2462C11.7088 15.3822 11.6235 15.5407 11.5739 15.7692C11.2879 15.7655 11.1579 15.7004 10.9807 15.6111C10.7644 15.502 10.4952 15.3663 9.99947 15.3663C9.50373 15.3663 9.23459 15.502 9.0183 15.6111C8.83592 15.7031 8.70412 15.7695 8.40026 15.7695C8.18123 15.7695 8.05163 15.7349 7.92803 15.6812C7.93682 15.6647 7.94588 15.6479 7.95538 15.6304C8.0669 15.4245 8.20569 15.1683 8.20569 14.694C8.20569 14.2195 8.0669 13.9634 7.95538 13.7575C7.86327 13.5875 7.80249 13.4752 7.80249 13.2053C7.80249 12.9354 7.86334 12.8231 7.95538 12.6532C8.0669 12.4474 8.20569 12.1912 8.20569 11.7169C8.20569 11.2425 8.0669 10.9864 7.95538 10.7805C7.86327 10.6106 7.80249 10.4983 7.80249 10.2284C7.80249 10.2085 7.80292 10.1897 7.80358 10.1714H8.93143C9.15412 10.1714 9.33467 9.99084 9.33467 9.76815V7.34882C9.33467 7.12616 9.15416 6.94558 8.93143 6.94558H4.49597C4.27327 6.94558 4.09273 7.12612 4.09273 7.34882V9.76815C4.09273 9.9908 4.27323 10.1714 4.49597 10.1714H4.98089C4.98046 10.1902 4.97983 10.2088 4.97983 10.2284C4.97983 10.7027 5.11862 10.9588 5.23015 11.1647C5.32226 11.3347 5.38304 11.447 5.38304 11.7169C5.38304 11.9867 5.32218 12.0991 5.23015 12.269C5.11862 12.4748 4.97983 12.731 4.97983 13.2053C4.97983 13.6796 5.11862 13.9358 5.23011 14.1417C5.32222 14.3117 5.38304 14.424 5.38304 14.694C5.38304 14.9639 5.32218 15.0762 5.23015 15.2462C5.15745 15.3804 5.07335 15.5365 5.02351 15.7601C4.83722 15.7388 4.72546 15.6828 4.58319 15.6111C4.36691 15.502 4.09773 15.3663 3.60195 15.3663C3.35468 15.3663 3.16382 15.4001 3.00773 15.4475L3.00769 5.51413ZM1.39476 2.55351H2.20121V15.7577C2.14339 15.7653 2.07832 15.7694 2.00254 15.7694C1.70445 15.7694 1.57179 15.7054 1.39476 15.6162V2.55351Z" fill="black"/>
<path d="M19.5967 17.0435C19.1009 17.0435 18.8317 17.1792 18.6153 17.2882C18.4329 17.3802 18.301 17.4467 17.997 17.4467C17.693 17.4467 17.5611 17.3803 17.3787 17.2882C17.1623 17.1792 16.8931 17.0435 16.3973 17.0435C15.9015 17.0435 15.6323 17.1792 15.416 17.2882C15.2336 17.3802 15.1018 17.4467 14.7978 17.4467C14.4938 17.4467 14.362 17.3803 14.1795 17.2882C13.9633 17.1792 13.694 17.0435 13.1983 17.0435C12.7025 17.0435 12.4333 17.1792 12.217 17.2882C12.0346 17.3802 11.9028 17.4467 11.5988 17.4467C11.2948 17.4467 11.163 17.3803 10.9806 17.2882C10.7643 17.1792 10.4951 17.0435 9.99935 17.0435C9.50361 17.0435 9.23447 17.1792 9.01818 17.2883C8.8358 17.3802 8.704 17.4467 8.40014 17.4467C8.09619 17.4467 7.96436 17.3803 7.78193 17.2882C7.56565 17.1792 7.29647 17.0435 6.80072 17.0435C6.30494 17.0435 6.03577 17.1792 5.81948 17.2882C5.63705 17.3802 5.50526 17.4467 5.20124 17.4467C4.89729 17.4467 4.76545 17.3803 4.58303 17.2883C4.36674 17.1792 4.09757 17.0435 3.60179 17.0435C3.10604 17.0435 2.83686 17.1792 2.62058 17.2883C2.43819 17.3802 2.3064 17.4467 2.00241 17.4467C1.69851 17.4467 1.56667 17.3803 1.38433 17.2883C1.16804 17.1792 0.898861 17.0435 0.403119 17.0435C0.180424 17.0435 -0.00012207 17.224 -0.00012207 17.4467C-0.00012207 17.6694 0.180385 17.8499 0.403119 17.8499C0.707025 17.8499 0.838861 17.9164 1.0212 18.0084C1.23749 18.1174 1.50667 18.2532 2.00241 18.2532C2.49815 18.2532 2.76733 18.1174 2.98362 18.0084C3.166 17.9164 3.2978 17.8499 3.60179 17.8499C3.90577 17.8499 4.03757 17.9164 4.21999 18.0084C4.43628 18.1174 4.70545 18.2532 5.20124 18.2532C5.69702 18.2532 5.9662 18.1174 6.18248 18.0084C6.36491 17.9164 6.4967 17.8499 6.80072 17.8499C7.10467 17.8499 7.23647 17.9164 7.41889 18.0084C7.63518 18.1174 7.90439 18.2532 8.40014 18.2532C8.89588 18.2532 9.16502 18.1174 9.38131 18.0084C9.56369 17.9164 9.69548 17.8499 9.99935 17.8499C10.3033 17.8499 10.4351 17.9164 10.6176 18.0084C10.8338 18.1174 11.103 18.2532 11.5988 18.2532C12.0946 18.2532 12.3638 18.1174 12.5801 18.0084C12.7625 17.9164 12.8943 17.8499 13.1983 17.8499C13.5023 17.8499 13.6341 17.9164 13.8165 18.0084C14.0328 18.1174 14.302 18.2532 14.7978 18.2532C15.2936 18.2532 15.5628 18.1174 15.7791 18.0084C15.9615 17.9164 16.0933 17.8499 16.3973 17.8499C16.7014 17.8499 16.8332 17.9164 17.0157 18.0084C17.232 18.1174 17.5012 18.2532 17.997 18.2532C18.4929 18.2532 18.7621 18.1174 18.9784 18.0084C19.1609 17.9164 19.2927 17.8499 19.5968 17.8499C19.8194 17.8499 20 17.6694 20 17.4467C20 17.224 19.8194 17.0435 19.5967 17.0435Z" fill="black"/>
<path d="M11.8816 5.51425H12.0026C12.2253 5.51425 12.4059 5.3337 12.4059 5.111C12.4059 4.88835 12.2253 4.70776 12.0026 4.70776H11.8816C11.659 4.70776 11.4784 4.88831 11.4784 5.111C11.4784 5.33366 11.659 5.51425 11.8816 5.51425Z" fill="black"/>
</g>
<defs>
<clipPath id="clip0_96_723">
<rect width="20" height="20" fill="white"/>
</clipPath>
</defs>
</svg>
