<svg width="32" height="32" viewBox="0 0 32 32" fill="none" xmlns="http://www.w3.org/2000/svg">
<rect width="32" height="32" rx="16" fill="#F1F1EF"/>
<path d="M19.2746 6.776H19.2307C18.5861 6.776 18.0616 7.30049 18.0616 7.94514V18.9993C18.0616 19.705 17.8061 20.408 17.3421 20.9789C16.9666 21.4409 16.7599 22.0238 16.7599 22.6201C16.7599 24.056 17.9279 25.224 19.3638 25.224H19.7392L18.7931 23.289L18.9884 22.6458H19.9098L20.7046 24.5003L20.945 24.3084C20.9789 24.2814 21.2827 24.0262 21.5075 23.4049C21.5184 23.375 21.5287 23.345 21.5386 23.3149C21.8643 22.3221 21.6418 21.193 20.9579 20.3681C20.7311 20.0945 20.5742 19.7732 20.504 19.4387C20.464 19.2482 20.4437 19.0529 20.4437 18.8582V7.94514C20.4438 7.30049 19.9193 6.776 19.2746 6.776ZM18.5304 10.377H19.0302V17.8374H19.499V10.377H19.975V18.8582C19.975 18.9898 19.9839 19.1216 19.9997 19.2525H18.5202C18.5264 19.1683 18.5304 19.0839 18.5304 18.9993V10.377H18.5304ZM19.975 9.90823H18.5304V9.73573H19.975V9.90823ZM19.2307 7.24475H19.2746C19.6608 7.24475 19.975 7.55893 19.975 7.94514V9.26694H18.5304V7.94514C18.5304 7.55893 18.8445 7.24475 19.2307 7.24475ZM20.5971 20.6672C21.1791 21.3692 21.3692 22.3277 21.0932 23.1687C21.0848 23.1942 21.0761 23.2198 21.0668 23.2453C21.001 23.4272 20.9278 23.5694 20.8615 23.6764L20.219 22.1771H18.6409L18.2911 23.3292L18.9706 24.7189C17.9804 24.5339 17.2287 23.6631 17.2287 22.6201C17.2287 22.131 17.3981 21.6532 17.7059 21.2745C18.0791 20.8155 18.3339 20.2805 18.4531 19.7212H20.0923C20.1918 20.0621 20.364 20.3861 20.5971 20.6672Z" fill="black"/>
<path d="M19.2646 8.56932C19.6074 8.56932 19.8864 8.29037 19.8864 7.94752C19.8864 7.60463 19.6074 7.32568 19.2646 7.32568C18.9217 7.32568 18.6427 7.60463 18.6427 7.94752C18.6427 8.29037 18.9217 8.56932 19.2646 8.56932ZM19.2646 7.79443C19.349 7.79443 19.4176 7.86307 19.4176 7.94752C19.4176 8.03193 19.349 8.10057 19.2646 8.10057C19.1801 8.10057 19.1115 8.03189 19.1115 7.94752C19.1115 7.86307 19.1801 7.79443 19.2646 7.79443Z" fill="black"/>
<path d="M19.499 18.306H19.0303V19.0706H19.499V18.306Z" fill="black"/>
<path d="M13.4056 23.4308C13.0628 23.4308 12.7838 23.7097 12.7838 24.0526C12.7838 24.3955 13.0628 24.6745 13.4056 24.6745C13.7485 24.6745 14.0275 24.3955 14.0275 24.0526C14.0275 23.7097 13.7485 23.4308 13.4056 23.4308ZM13.4056 24.2057C13.3212 24.2057 13.2526 24.137 13.2526 24.0526C13.2526 23.9682 13.3212 23.8995 13.4056 23.8995C13.4901 23.8995 13.5587 23.9682 13.5587 24.0526C13.5587 24.137 13.4901 24.2057 13.4056 24.2057Z" fill="black"/>
<path d="M15.5157 10.7396C15.7661 10.3313 15.8985 9.86112 15.8985 9.37991C15.8985 7.94409 14.7304 6.776 13.2946 6.776H12.9191L13.8652 8.71104L13.6699 9.35417H12.7485L11.9537 7.49979L11.7133 7.69167C11.6798 7.71838 10.927 8.341 10.9136 10.0678H10.3138V11.1656L10.5217 11.2854C10.6903 11.3819 10.8506 11.493 10.9985 11.6159C11.0343 11.6454 11.0697 11.676 11.1038 11.7066C11.8097 12.3434 12.2146 13.2539 12.2146 14.2047V24.0548C12.2146 24.6995 12.7392 25.224 13.3838 25.224H13.4275C14.0722 25.224 14.5967 24.6995 14.5967 24.0548V14.5765V14.0375C14.5968 12.8601 14.9145 11.7198 15.5157 10.7396ZM11.7974 8.32499L12.3088 9.51807L11.6306 10.0678H11.382C11.3898 9.16358 11.619 8.61534 11.7974 8.32499ZM11.4175 11.3583C11.3784 11.3232 11.338 11.2883 11.2977 11.255C11.1375 11.1219 10.9642 11.0007 10.7826 10.8948V10.5365H11.7966L12.677 9.82292H14.0175L14.3673 8.67077L13.6878 7.28104C14.6779 7.46612 15.4297 8.33686 15.4297 9.37991C15.4297 9.77459 15.3213 10.16 15.1161 10.4945C14.4697 11.5484 14.128 12.7736 14.128 14.0375V14.5765V21.6231H13.64V14.1626H13.1713V21.6231H12.6834V14.2047C12.6834 13.1215 12.2221 12.0841 11.4175 11.3583ZM12.6834 22.0919H14.128V22.2643H12.6834V22.0919ZM13.4276 24.7553H13.3839C12.9976 24.7553 12.6834 24.441 12.6834 24.0548V22.7331H14.128V24.0548C14.128 24.441 13.8138 24.7553 13.4276 24.7553Z" fill="black"/>
<path d="M14.1231 10.3411H12.2209V11.6965H14.1231V10.3411ZM12.6897 10.8098H12.9377V11.2277H12.6897V10.8098ZM13.6543 11.2277H13.4064V10.8098H13.6543V11.2277Z" fill="black"/>
<path d="M13.64 12.9296H13.1713V13.6941H13.64V12.9296Z" fill="black"/>
</svg>
