<svg width="20" height="20" viewBox="0 0 20 20" fill="none" xmlns="http://www.w3.org/2000/svg">
<path d="M3.939 8.58243C4.58914 8.40823 4.97497 7.73997 4.80078 7.08982C4.62658 6.43968 3.95832 6.05385 3.30817 6.22804C2.65803 6.40224 2.2722 7.0705 2.44639 7.72065C2.62059 8.37079 3.28885 8.75662 3.939 8.58243Z" fill="black"/>
<path d="M5.84372 15.2343H4.35934C4.35934 15.2343 4.28122 15.2343 4.21872 15.2343C3.54684 15.1718 2.96872 14.6875 2.79684 14.0156L1.78122 10.2343C1.71872 10.0156 1.49997 9.90622 1.31247 9.95309C1.09372 10.0156 0.984343 10.2343 1.03122 10.4218L2.03122 14.2031C2.29684 15.1875 3.12497 15.9062 4.14059 15.9843C4.23434 16 4.34372 16 4.34372 16H5.82809C6.04684 16 6.20309 15.8281 6.21872 15.6093C6.21872 15.3906 6.06247 15.2343 5.84372 15.2343Z" fill="black"/>
<path d="M7.59373 13.1094H5.56248C5.51561 12.3437 5.39061 11.5781 5.20311 10.8125C5.18748 10.75 5.14061 10.5937 5.14061 10.5781C4.87498 9.59375 3.93748 8.96875 2.95311 9.0625C2.95311 9.0625 2.82811 9.07812 2.79686 9.07812C2.43748 9.17187 2.21873 9.54687 2.31248 9.92187L3.35936 13.8125C3.46873 14.25 3.84373 14.5781 4.31248 14.6094H4.40623H6.82811V17.3906C6.82811 17.8125 7.15623 18.1562 7.59373 18.1562C8.01561 18.1562 8.35936 17.8281 8.35936 17.3906V13.875C8.35936 13.6719 8.28123 13.4844 8.12498 13.3437C7.98436 13.1875 7.78123 13.1094 7.59373 13.1094Z" fill="black"/>
<path d="M17.489 7.73049C17.6632 7.08034 17.2774 6.41208 16.6272 6.23789C15.9771 6.06369 15.3088 6.44952 15.1346 7.09966C14.9604 7.74981 15.3463 8.41807 15.9964 8.59227C16.6465 8.76647 17.3148 8.38063 17.489 7.73049Z" fill="black"/>
<path d="M14.0937 15.2346H15.5781C15.5781 15.2346 15.6562 15.2346 15.7187 15.2346C16.3906 15.1721 16.9687 14.6877 17.1406 14.0158L18.1562 10.2346C18.2187 10.0158 18.4375 9.90646 18.625 9.95334C18.8437 10.0158 18.9531 10.2346 18.9062 10.4221L17.9062 14.2033C17.6406 15.1877 16.8125 15.9065 15.7969 15.9846C15.7031 16.0002 15.5938 16.0002 15.5938 16.0002H14.1094C13.8906 16.0002 13.7344 15.8283 13.7188 15.6096C13.7188 15.3908 13.8906 15.2346 14.0937 15.2346Z" fill="black"/>
<path d="M12.3438 13.1094H14.375C14.4219 12.3437 14.5469 11.5781 14.7344 10.8125C14.75 10.75 14.7969 10.5937 14.7969 10.5781C15.0625 9.59375 16 8.96875 16.9844 9.0625C16.9844 9.0625 17.1094 9.07812 17.1406 9.07812C17.5 9.17187 17.7188 9.54687 17.625 9.92187L16.5625 13.8125C16.4531 14.25 16.0781 14.5781 15.6094 14.6094H15.5156H13.1094V17.3906C13.1094 17.8125 12.7813 18.1562 12.3438 18.1562C11.9063 18.1562 11.5781 17.8281 11.5781 17.3906V13.875C11.5781 13.6719 11.6562 13.4844 11.8125 13.3437C11.9531 13.1875 12.1563 13.1094 12.3438 13.1094Z" fill="black"/>
<path d="M13.9688 11.0625H6.0625V12H13.9688V11.0625Z" fill="black"/>
<path d="M10.0156 7.875C10.6369 7.875 11.1406 7.37132 11.1406 6.75C11.1406 6.12868 10.6369 5.625 10.0156 5.625C9.3943 5.625 8.89062 6.12868 8.89062 6.75C8.89062 7.37132 9.3943 7.875 10.0156 7.875Z" fill="black"/>
<path d="M8.20312 10.6094V9.9375H8.1875C8.1875 9.85938 8.25 9.79688 8.32812 9.79688C8.40625 9.79688 8.46875 9.85938 8.46875 9.9375V10.6094H11.5781V9.9375H11.5625C11.5625 9.85938 11.625 9.79688 11.7031 9.79688C11.7812 9.79688 11.8438 9.85938 11.8438 9.9375V10.6094H12.8125V9.65625C12.8125 8.875 12.1875 8.25 11.4062 8.25H8.59375C7.8125 8.25 7.1875 8.875 7.1875 9.65625V10.6094H8.20312Z" fill="black"/>
</svg>
