<svg width="32" height="32" viewBox="0 0 32 32" fill="none" xmlns="http://www.w3.org/2000/svg">
<rect width="32" height="32" rx="16" fill="#F1F1EF"/>
<path d="M16 26C10.5313 26 6 21.4687 6 16C6 10.5313 10.5313 6 16 6C21.4687 6 26 10.5313 26 16C26 21.4687 21.4687 26 16 26ZM16 7.25C11.1563 7.25 7.25 11.1563 7.25 16C7.25 20.8437 11.1563 24.75 16 24.75C20.8437 24.75 24.75 20.8437 24.75 16C24.75 11.1563 20.8437 7.25 16 7.25Z" fill="#263238"/>
<path d="M17.0956 12.0938H14.1268C13.8143 12.0938 13.5018 12.4063 13.5018 12.7188V20.5313C13.5018 20.8437 13.8143 21.1563 14.1268 21.1563C14.4393 21.1563 14.7518 20.8437 14.7518 20.5313V16.7813H17.0956C18.3456 16.7813 19.4393 15.6875 19.4393 14.4375C19.4393 13.1875 18.3456 12.0938 17.0956 12.0938ZM17.0956 15.5313H14.7518V13.3438H17.0956C17.7206 13.3438 18.1893 13.8125 18.1893 14.4375C18.1893 15.0625 17.7206 15.5313 17.0956 15.5313Z" fill="#263238"/>
</svg>
