<svg width="20" height="20" viewBox="0 0 20 20" fill="none" xmlns="http://www.w3.org/2000/svg">
<path d="M14.2222 13.167H15.9999V14.5003C15.9999 14.7457 15.8008 14.9448 15.5555 14.9448H14.6666C14.4213 14.9448 14.2222 14.7457 14.2222 14.5003V13.167Z" stroke="#3C3C3C" stroke-width="1.5"/>
<path d="M4.44446 13.167H6.22224V14.5003C6.22224 14.7457 6.02312 14.9448 5.77779 14.9448H4.8889C4.64357 14.9448 4.44446 14.7457 4.44446 14.5003V13.167Z" stroke="#3C3C3C" stroke-width="1.5"/>
<path d="M6.22224 8.72241H14.2222C15.204 8.72241 16 9.51841 16 10.5002V12.7224C16 12.9677 15.8009 13.1669 15.5556 13.1669H4.8889C4.64357 13.1669 4.44446 12.9677 4.44446 12.7224V10.5002C4.44446 9.51841 5.24046 8.72241 6.22224 8.72241Z" stroke="#3C3C3C" stroke-width="1.5"/>
<path d="M14.2223 10.5002C14.4676 10.5002 14.6667 10.6994 14.6667 10.9447C14.6667 11.19 14.4676 11.3891 14.2223 11.3891C13.9769 11.3891 13.7778 11.19 13.7778 10.9447C13.7778 10.6994 13.9769 10.5002 14.2223 10.5002Z" fill="#3C3C3C"/>
<path d="M6.22228 10.5002C6.46761 10.5002 6.66672 10.6994 6.66672 10.9447C6.66672 11.19 6.46761 11.3891 6.22228 11.3891C5.97694 11.3891 5.77783 11.19 5.77783 10.9447C5.77783 10.6994 5.97694 10.5002 6.22228 10.5002Z" fill="#3C3C3C"/>
<path d="M6.97471 5.16699H13.4698C13.6552 5.16699 13.8209 5.2821 13.8858 5.45544L15.1112 8.72255H5.33337L6.55871 5.45544C6.6236 5.2821 6.78937 5.16699 6.97471 5.16699Z" stroke="#3C3C3C" stroke-width="1.5"/>
<path d="M4 7.38916H5.33333V8.27805H4V7.38916Z" fill="#3C3C3C"/>
<path d="M15.1111 7.38916H16.4444V8.27805H15.1111V7.38916Z" fill="#3C3C3C"/>
<path d="M7.55554 10.9448H12.8889" stroke="#3C3C3C" stroke-width="1.5"/>
</svg>
