<svg width="20" height="20" viewBox="0 0 20 20" fill="none" xmlns="http://www.w3.org/2000/svg">
<g clip-path="url(#clip0_93_356)">
<path d="M9.96875 0.453125L0.554688 5.19531V19.5H1.30469V5.64844L9.96875 1.30469L18.6406 5.66406V19.5H19.375V5.19531L9.96875 0.453125ZM15.7266 11.7578L14.5703 8.77344C14.3594 8.21094 13.8828 7.71875 12.9844 7.71875H11.3516H8.5625H6.91406C6.03125 7.71875 5.5625 8.20312 5.32813 8.77344L4.17187 11.7578C3.71875 11.8203 2.90625 12.3516 2.90625 13.3672V17.1641H4.03125V18.3828C4.03125 19.875 6.14844 19.8672 6.14844 18.3828V17.1641H9.96094H13.7734V18.3828C13.7734 19.8672 15.8906 19.875 15.8906 18.3828V17.1641H17.0156V13.3672C16.9922 12.3516 16.1875 11.8047 15.7266 11.7578ZM5.11719 14.875C4.58594 14.875 4.14062 14.4219 4.14062 13.8672C4.14062 13.3203 4.57812 12.8594 5.11719 12.8594C5.64844 12.8594 6.09375 13.3125 6.09375 13.8672C6.09375 14.4219 5.66406 14.875 5.11719 14.875ZM9.94531 11.7266H5.375L6.24219 9.375C6.34375 9.03906 6.51562 8.8125 6.89844 8.79688H9.94531H12.9922C13.375 8.79688 13.5391 9.03906 13.6484 9.375L14.5156 11.7266H9.94531ZM14.7891 14.875C14.2578 14.875 13.8125 14.4219 13.8125 13.8672C13.8125 13.3203 14.25 12.8594 14.7891 12.8594C15.3281 12.8594 15.7656 13.3125 15.7656 13.8672C15.7656 14.4219 15.3203 14.875 14.7891 14.875Z" fill="black"/>
</g>
<defs>
<clipPath id="clip0_93_356">
<rect width="20" height="20" fill="white"/>
</clipPath>
</defs>
</svg>
