<svg width="20" height="20" viewBox="0 0 20 20" fill="none" xmlns="http://www.w3.org/2000/svg">
<path d="M4.16663 18.3334H15.8333C16.4963 18.3334 17.1322 18.07 17.6011 17.6012C18.0699 17.1323 18.3333 16.4965 18.3333 15.8334V4.16675C18.3333 3.50371 18.0699 2.86782 17.6011 2.39898C17.1322 1.93014 16.4963 1.66675 15.8333 1.66675H4.16663C3.50358 1.66675 2.8677 1.93014 2.39886 2.39898C1.93002 2.86782 1.66663 3.50371 1.66663 4.16675V15.8334C1.66663 16.4965 1.93002 17.1323 2.39886 17.6012C2.8677 18.07 3.50358 18.3334 4.16663 18.3334ZM3.33329 4.16675C3.33329 3.94573 3.42109 3.73377 3.57737 3.57749C3.73365 3.42121 3.94561 3.33341 4.16663 3.33341H15.8333C16.0543 3.33341 16.2663 3.42121 16.4225 3.57749C16.5788 3.73377 16.6666 3.94573 16.6666 4.16675V15.8334C16.6666 16.0544 16.5788 16.2664 16.4225 16.4227C16.2663 16.579 16.0543 16.6667 15.8333 16.6667H4.16663C3.94561 16.6667 3.73365 16.579 3.57737 16.4227C3.42109 16.2664 3.33329 16.0544 3.33329 15.8334V4.16675ZM7.49996 15.0001C7.72097 15.0001 7.93293 14.9123 8.08921 14.756C8.24549 14.5997 8.33329 14.3878 8.33329 14.1667V11.6667H9.99996C10.884 11.6667 11.7319 11.3156 12.357 10.6904C12.9821 10.0653 13.3333 9.21747 13.3333 8.33341C13.3333 7.44936 12.9821 6.60151 12.357 5.97639C11.7319 5.35127 10.884 5.00008 9.99996 5.00008H7.49996C7.27895 5.00008 7.06698 5.08788 6.9107 5.24416C6.75442 5.40044 6.66663 5.6124 6.66663 5.83341V14.1667C6.66663 14.3878 6.75442 14.5997 6.9107 14.756C7.06698 14.9123 7.27895 15.0001 7.49996 15.0001ZM8.33329 6.66675H9.99996C10.442 6.66675 10.8659 6.84234 11.1785 7.1549C11.491 7.46746 11.6666 7.89139 11.6666 8.33341C11.6666 8.77544 11.491 9.19936 11.1785 9.51193C10.8659 9.82449 10.442 10.0001 9.99996 10.0001H8.33329V6.66675Z" fill="black"/>
</svg>
