<svg width="20" height="20" viewBox="0 0 20 20" fill="none" xmlns="http://www.w3.org/2000/svg">
<path d="M4.64281 12.0833L7.88825 15.3451M15.8331 3.00813C14.5037 2.99588 13.8882 3.61028 13.6864 4.23119C13.5086 4.77795 13.6711 5.89779 13.2467 6.72725C12.841 7.52036 11.7671 7.96809 10.5476 8.00581M16.6667 6.342L16.6751 6.34208M15.8334 13.3L15.8417 13.3001M5.8334 3.29105L5.84173 3.29114M15.8334 9.25784C14.5834 9.25784 13.7501 9.6745 12.9958 10.4539M8.53148 5.98997C9.16673 5.0916 9.58339 4.25826 9.17356 2.93945M2.94653 17.0538L5.89281 8.21493L11.7854 14.1075L2.94653 17.0538Z" stroke="black" stroke-width="1.5" stroke-linecap="round" stroke-linejoin="round"/>
</svg>
