<svg width="20" height="20" viewBox="0 0 20 20" fill="none" xmlns="http://www.w3.org/2000/svg">
<g clip-path="url(#clip0_93_321)">
<path d="M16.1252 14.0898C15.9182 13.7636 14.4011 11.4004 13.1044 10.1503C12.0226 9.11161 10.4034 9.08154 10.2199 9.08154C10.2032 9.08163 10.1864 9.08224 10.17 9.08355H9.7774C9.60397 9.08355 8.05007 9.1131 6.91355 10.1362C5.5113 11.3999 3.95975 13.9487 3.85119 14.1283C3.02926 15.4278 2.52551 16.273 2.52551 17.2127C2.52551 18.9059 3.76614 20.0001 5.68612 20.0001H14.3146C16.234 20.0001 17.4743 18.9049 17.4743 17.2099C17.4743 16.2619 16.9693 15.418 16.1452 14.1197C16.1387 14.1095 16.1321 14.0995 16.1252 14.0898ZM14.3146 18.6889H5.68612C4.9954 18.6889 3.83668 18.4971 3.83668 17.2127C3.83668 16.6638 4.19734 16.0336 4.96297 14.8234C4.9655 14.8194 4.96804 14.8153 4.97057 14.8112C4.98587 14.7858 6.51172 12.2635 7.79107 11.1105C8.57121 10.4083 9.76629 10.3949 9.77792 10.3948H10.222C10.2345 10.3948 10.2468 10.3945 10.2592 10.3938C10.4726 10.4018 11.5476 10.473 12.1955 11.0951C13.444 12.299 15.021 14.7967 15.0368 14.8218C15.0439 14.8331 15.0513 14.844 15.0589 14.8547C15.8733 16.1395 16.1632 16.6919 16.1632 17.2097C16.1631 18.4323 15.1578 18.6889 14.3146 18.6889Z" fill="black"/>
<path d="M6.83533 7.49384C8.31511 7.49384 9.47419 5.8478 9.47419 3.74653C9.47427 1.64569 8.31511 0 6.83533 0C5.35573 0 4.19666 1.64569 4.19666 3.74653C4.19666 5.84789 5.35573 7.49384 6.83533 7.49384ZM6.83533 1.31117C7.46329 1.31117 8.16302 2.31132 8.16302 3.74653C8.16302 5.18216 7.46321 6.18267 6.83533 6.18267C6.20746 6.18267 5.50773 5.18216 5.50773 3.74653C5.50782 2.31132 6.20746 1.31117 6.83533 1.31117Z" fill="black"/>
<path d="M3.37964 12.0012C3.63759 12.0012 3.884 11.9481 4.11503 11.8421C5.26554 11.3071 5.5859 9.62822 4.84404 8.01951C4.26844 6.77373 3.2036 5.93677 2.19409 5.93677C1.93587 5.93677 1.68911 5.99 1.45975 6.09559C0.307667 6.62871 -0.0137433 8.30797 0.728289 9.91948C1.30389 11.1646 2.36934 12.0011 3.37947 12.0012H3.37964ZM1.91883 9.37019C1.47513 8.40657 1.60109 7.47485 2.00912 7.28613C2.06498 7.26043 2.12538 7.24793 2.194 7.24793C2.6057 7.24793 3.25709 7.71104 3.6535 8.56898C4.0972 9.5312 3.97124 10.463 3.56513 10.6518C3.50901 10.6775 3.44835 10.6901 3.37955 10.6901C2.96732 10.69 2.31515 10.2271 1.91883 9.37019Z" fill="black"/>
<path d="M13.1633 7.49384C14.6425 7.49384 15.8013 5.8478 15.8013 3.74653C15.8013 1.64569 14.6425 0 13.1633 0C11.6826 0 10.5228 1.64569 10.5228 3.74653C10.5228 5.84789 11.6826 7.49384 13.1633 7.49384ZM13.1633 1.31117C13.7909 1.31117 14.4902 2.31132 14.4902 3.74653C14.4902 5.18216 13.7909 6.18267 13.1633 6.18267C12.5346 6.18267 11.834 5.18216 11.834 3.74653C11.834 2.31132 12.5346 1.31117 13.1633 1.31117Z" fill="black"/>
<path d="M18.5403 6.09573C18.3115 5.98979 18.0641 5.93604 17.8051 5.93604C16.797 5.93604 15.7325 6.77326 15.1566 8.01878C14.4114 9.62679 14.7315 11.3063 15.888 11.8435C16.1161 11.9482 16.3626 12.0012 16.6205 12.0012C17.6309 12.0012 18.6961 11.1645 19.2712 9.91892C20.0138 8.30855 19.6926 6.62912 18.5403 6.09573ZM18.0807 9.36954C17.6847 10.2272 17.0329 10.69 16.6205 10.69C16.5517 10.69 16.491 10.6775 16.4376 10.653C16.0271 10.4624 15.9008 9.53108 16.3464 8.56956C16.7436 7.71057 17.3943 7.24711 17.8051 7.24711C17.8733 7.24711 17.9335 7.25961 17.9892 7.2854C18.3987 7.47508 18.5247 8.40671 18.0807 9.36954Z" fill="black"/>
</g>
<defs>
<clipPath id="clip0_93_321">
<rect width="20" height="20" fill="white"/>
</clipPath>
</defs>
</svg>
