<svg width="20" height="20" viewBox="0 0 20 20" fill="none" xmlns="http://www.w3.org/2000/svg">
<path d="M3.33337 17.5001V16.2501C3.33337 13.7187 5.3854 11.6667 7.91671 11.6667H12.0834C14.6147 11.6667 16.6667 13.7187 16.6667 16.2501V17.5001M6.66671 17.5001V15.4167M13.3334 17.5001V15.2778M7.08337 5.41675C8.76171 6.85534 11.2384 6.85534 12.9167 5.41675M13.3334 5.83341V4.10637L14.5548 2.31846C14.7438 2.0419 14.5457 1.66675 14.2108 1.66675H5.78931C5.45437 1.66675 5.25633 2.0419 5.44527 2.31846L6.66671 4.10637V5.83341M13.3334 6.66675C13.3334 8.50766 11.841 10.0001 10 10.0001C8.15909 10.0001 6.66671 8.50766 6.66671 6.66675V4.58341H13.3334V6.66675Z" stroke="black" stroke-width="1.5" stroke-linecap="round" stroke-linejoin="round"/>
</svg>
