<svg width="20" height="20" viewBox="0 0 20 20" fill="none" xmlns="http://www.w3.org/2000/svg">
<g clip-path="url(#clip0_92_258)">
<path d="M18.75 12.3833V18.75H1.25V12.3833H2.08333C2.61936 12.8933 3.33094 13.1777 4.07083 13.1777C4.81073 13.1777 5.5223 12.8933 6.05833 12.3833C6.59297 12.8928 7.30316 13.177 8.04167 13.177C8.78017 13.177 9.49036 12.8928 10.025 12.3833C10.5596 12.8928 11.2698 13.177 12.0083 13.177C12.7468 13.177 13.457 12.8928 13.9917 12.3833C14.5277 12.8933 15.2393 13.1777 15.9792 13.1777C16.7191 13.1777 17.4306 12.8933 17.9667 12.3833H18.8H18.75Z" stroke="#020202" stroke-width="1.5" stroke-miterlimit="10"/>
<path d="M6.02502 12.3833V3.63333C6.02502 3.00123 6.27612 2.39502 6.72309 1.94806C7.17005 1.5011 7.77626 1.25 8.40836 1.25" stroke="#020202" stroke-width="1.5" stroke-miterlimit="10"/>
<path d="M12.3833 13.1583V3.63335C12.3833 3.31966 12.4452 3.00906 12.5655 2.71936C12.6858 2.42965 12.8621 2.16655 13.0843 1.94512C13.3065 1.7237 13.5702 1.54832 13.8603 1.42904C14.1505 1.30976 14.4613 1.24892 14.775 1.25001" stroke="#020202" stroke-width="1.5" stroke-miterlimit="10"/>
<path d="M6.02502 5.2251H12.3834" stroke="#020202" stroke-width="1.5" stroke-miterlimit="10"/>
<path d="M6.02502 9.20825H12.3834" stroke="#020202" stroke-width="1.5" stroke-miterlimit="10"/>
</g>
<defs>
<clipPath id="clip0_92_258">
<rect width="20" height="20" fill="white"/>
</clipPath>
</defs>
</svg>
