<svg width="32" height="32" viewBox="0 0 32 32" fill="none" xmlns="http://www.w3.org/2000/svg">
<rect width="32" height="32" rx="16" fill="#F1F1EF"/>
<g clip-path="url(#clip0_276_17)">
<path d="M7.00001 16.6438C7.00001 11.3177 11.3177 6.99995 16.6438 6.99995C16.8647 6.99995 17.0438 6.82087 17.0438 6.59995C17.0438 6.37903 16.8647 6.19995 16.6438 6.19995C10.8759 6.19995 6.20001 10.8758 6.20001 16.6438C6.20001 16.8647 6.37909 17.0438 6.60001 17.0438C6.82093 17.0438 7.00001 16.8647 7.00001 16.6438ZM17.9953 8.31895C22.0602 8.96864 25.0912 12.4908 25.0912 16.6514C25.0912 21.3119 21.3131 25.09 16.6526 25.09C12.5321 25.09 9.03298 22.1159 8.33818 18.1012C8.3005 17.8835 8.09351 17.7376 7.87583 17.7752C7.65816 17.8129 7.51224 18.0199 7.5499 18.2376C8.31079 22.6342 12.1413 25.8899 16.6526 25.8899C21.7549 25.8899 25.8912 21.7537 25.8912 16.6514C25.8912 12.0962 22.5731 8.24048 18.1216 7.52897C17.9034 7.49411 17.6983 7.64269 17.6634 7.86083C17.6285 8.07897 17.7771 8.28407 17.9953 8.31895Z" fill="black"/>
<path d="M16.2438 6.74119V16.785C16.2438 17.0059 16.4229 17.185 16.6438 17.185C16.8648 17.185 17.0438 17.0059 17.0438 16.785V6.74119C17.0438 6.52027 16.8648 6.34119 16.6438 6.34119C16.4229 6.34119 16.2438 6.52027 16.2438 6.74119Z" fill="black"/>
<path d="M6.60001 17.185H16.6438C16.8647 17.185 17.0438 17.0059 17.0438 16.785C17.0438 16.5641 16.8647 16.385 16.6438 16.385H6.60001C6.37909 16.385 6.20001 16.5641 6.20001 16.785C6.20001 17.0059 6.37909 17.185 6.60001 17.185ZM11.534 11.3697C11.534 11.1189 11.341 10.9201 11.109 10.9201C10.877 10.9201 10.684 11.1188 10.684 11.3697C10.684 11.6206 10.877 11.8193 11.109 11.8193C11.341 11.8193 11.534 11.6206 11.534 11.3697ZM12.334 11.3697C12.334 12.0572 11.7882 12.6193 11.109 12.6193C10.4298 12.6193 9.884 12.0573 9.884 11.3697C9.884 10.6822 10.4298 10.1201 11.109 10.1201C11.7882 10.1201 12.334 10.6822 12.334 11.3697ZM14.504 14.0032C14.504 13.7523 14.311 13.5536 14.079 13.5536C13.847 13.5536 13.654 13.7523 13.654 14.0032C13.654 14.2541 13.847 14.4528 14.079 14.4528C14.311 14.4528 14.504 14.2541 14.504 14.0032ZM15.304 14.0032C15.304 14.6907 14.7582 15.2528 14.079 15.2528C13.3998 15.2528 12.854 14.6907 12.854 14.0032C12.854 13.3157 13.3998 12.7536 14.079 12.7536C14.7582 12.7536 15.304 13.3157 15.304 14.0032ZM13.792 10.8362L10.492 14.2342C10.3381 14.3927 10.3418 14.6459 10.5003 14.7998C10.6588 14.9537 10.912 14.95 11.0659 14.7915L14.3659 11.3935C14.5199 11.2351 14.5161 10.9818 14.3577 10.8279C14.1992 10.674 13.946 10.6777 13.792 10.8362Z" fill="black"/>
</g>
<defs>
<clipPath id="clip0_276_17">
<rect width="20" height="20" fill="white" transform="translate(6 6)"/>
</clipPath>
</defs>
</svg>
