<svg width="20" height="20" viewBox="0 0 20 20" fill="none" xmlns="http://www.w3.org/2000/svg">
<g clip-path="url(#clip0_96_761)">
<path d="M19.1667 0.833252H0.83332C0.373086 0.833252 0 1.20638 0 1.66661V16.6666C0 17.1268 0.373086 17.4999 0.83332 17.4999H1.66664V18.3333C1.66664 18.7935 2.03973 19.1666 2.49996 19.1666C2.9602 19.1666 3.33328 18.7935 3.33328 18.3333V17.4999H16.6666V18.3333C16.6666 18.7935 17.0397 19.1666 17.4999 19.1666C17.9602 19.1666 18.3332 18.7935 18.3332 18.3333V17.4999H19.1666C19.6268 17.4999 19.9999 17.1268 19.9999 16.6666V1.66661C20 1.20638 19.6269 0.833252 19.1667 0.833252ZM18.3333 15.8333H1.66668V2.49993H18.3334V15.8333H18.3333Z" fill="black"/>
<path d="M3.33332 4.99989H4.16664C4.62687 4.99989 4.99996 4.62681 4.99996 4.16657C4.99996 3.70634 4.62687 3.33325 4.16664 3.33325H3.33332C2.87309 3.33321 2.5 3.70634 2.5 4.16657C2.5 4.62681 2.87309 4.99989 3.33332 4.99989Z" fill="black"/>
<path d="M7.49995 4.99989H8.33327C8.7935 4.99989 9.16659 4.62681 9.16659 4.16657C9.16659 3.70634 8.7935 3.33325 8.33327 3.33325H7.49995C7.03971 3.33325 6.66663 3.70634 6.66663 4.16657C6.66663 4.62681 7.03971 4.99989 7.49995 4.99989Z" fill="black"/>
<path d="M11.6667 4.99989H12.5C12.9602 4.99989 13.3333 4.62681 13.3333 4.16657C13.3333 3.70634 12.9602 3.33325 12.5 3.33325H11.6667C11.2065 3.33325 10.8334 3.70634 10.8334 4.16657C10.8333 4.62681 11.2065 4.99989 11.6667 4.99989Z" fill="black"/>
<path d="M15.8333 4.99989H16.6666C17.1269 4.99989 17.5 4.62681 17.5 4.16657C17.5 3.70634 17.1269 3.33325 16.6666 3.33325H15.8333C15.3731 3.33325 15 3.70634 15 4.16657C15 4.62681 15.3731 4.99989 15.8333 4.99989Z" fill="black"/>
<path d="M3.33332 8.33314H4.16664C4.62687 8.33314 4.99996 7.96006 4.99996 7.49982C4.99996 7.03959 4.62687 6.6665 4.16664 6.6665H3.33332C2.87309 6.6665 2.5 7.03959 2.5 7.49982C2.5 7.96006 2.87309 8.33314 3.33332 8.33314Z" fill="black"/>
<path d="M3.33332 11.6666H10C10.4602 11.6666 10.8333 11.2936 10.8333 10.8333C10.8333 10.3731 10.4602 10 10 10H3.33332C2.87309 9.99996 2.5 10.373 2.5 10.8333C2.5 11.2935 2.87309 11.6666 3.33332 11.6666Z" fill="black"/>
<path d="M7.49995 8.33314H8.33327C8.7935 8.33314 9.16659 7.96006 9.16659 7.49982C9.16659 7.03959 8.7935 6.6665 8.33327 6.6665H7.49995C7.03971 6.6665 6.66663 7.03959 6.66663 7.49982C6.66663 7.96006 7.03971 8.33314 7.49995 8.33314Z" fill="black"/>
<path d="M11.6667 8.33314H12.5C12.9602 8.33314 13.3333 7.96006 13.3333 7.49982C13.3333 7.03959 12.9602 6.6665 12.5 6.6665H11.6667C11.2065 6.6665 10.8334 7.03959 10.8334 7.49982C10.8334 7.96006 11.2065 8.33314 11.6667 8.33314Z" fill="black"/>
<path d="M15.8333 8.33314H16.6666C17.1269 8.33314 17.5 7.96006 17.5 7.49982C17.5 7.03959 17.1269 6.6665 16.6666 6.6665H15.8333C15.3731 6.6665 15 7.03959 15 7.49982C15 7.96006 15.3731 8.33314 15.8333 8.33314Z" fill="black"/>
<path d="M3.33332 14.9999H4.16664C4.62687 14.9999 4.99996 14.6268 4.99996 14.1666C4.99996 13.7063 4.62687 13.3333 4.16664 13.3333H3.33332C2.87309 13.3333 2.5 13.7063 2.5 14.1666C2.5 14.6268 2.87309 14.9999 3.33332 14.9999Z" fill="black"/>
<path d="M8.33327 13.3333H7.49995C7.03971 13.3333 6.66663 13.7063 6.66663 14.1666C6.66663 14.6268 7.03971 14.9999 7.49995 14.9999H8.33327C8.7935 14.9999 9.16659 14.6268 9.16659 14.1666C9.16663 13.7064 8.7935 13.3333 8.33327 13.3333Z" fill="black"/>
<path d="M12.5 13.3333H11.6667C11.2065 13.3333 10.8334 13.7063 10.8334 14.1666C10.8334 14.6268 11.2065 14.9999 11.6667 14.9999H12.5C12.9602 14.9999 13.3333 14.6268 13.3333 14.1666C13.3333 13.7064 12.9602 13.3333 12.5 13.3333Z" fill="black"/>
<path d="M15.8333 14.9999H16.6666C17.1269 14.9999 17.5 14.6268 17.5 14.1666C17.5 13.7063 17.1269 13.3333 16.6666 13.3333H15.8333C15.3731 13.3333 15 13.7063 15 14.1666C15 14.6268 15.3731 14.9999 15.8333 14.9999Z" fill="black"/>
<path d="M16.6667 10C16.2067 10 15.8334 10.3733 15.8334 10.8333C15.8334 11.2933 16.2067 11.6666 16.6667 11.6666C17.1267 11.6666 17.5 11.2933 17.5 10.8333C17.5 10.3733 17.1267 10 16.6667 10Z" fill="black"/>
<path d="M12.5 10.8333C12.5 11.2933 12.8733 11.6666 13.3333 11.6666C13.7933 11.6666 14.1666 11.2933 14.1666 10.8333C14.1666 10.3733 13.7933 10 13.3333 10C12.8733 10 12.5 10.3733 12.5 10.8333Z" fill="black"/>
</g>
<defs>
<clipPath id="clip0_96_761">
<rect width="20" height="20" fill="white"/>
</clipPath>
</defs>
</svg>
