<svg width="36" height="34" viewBox="0 0 36 34" fill="none" xmlns="http://www.w3.org/2000/svg">
<rect x="0.5" y="0.665039" width="35" height="32" rx="9.5" fill="white"/>
<rect x="0.5" y="0.665039" width="35" height="32" rx="9.5" stroke="#C3C3C3"/>
<g clip-path="url(#clip0_115_61)">
<path fill-rule="evenodd" clip-rule="evenodd" d="M23.3846 25.1266C22.11 25.1266 21.0769 24.0935 21.0769 22.8189C21.0769 21.5443 22.11 20.5112 23.3846 20.5112C24.6592 20.5112 25.6923 21.5443 25.6923 22.8189C25.6923 24.0935 24.6592 25.1266 23.3846 25.1266ZM12.6154 18.9727C11.3408 18.9727 10.3077 17.9397 10.3077 16.665C10.3077 15.3912 11.3408 14.3573 12.6154 14.3573C13.89 14.3573 14.9231 15.3912 14.9231 16.665C14.9231 17.9397 13.89 18.9727 12.6154 18.9727ZM23.3846 8.2035C24.6592 8.2035 25.6923 9.23658 25.6923 10.5112C25.6923 11.7858 24.6592 12.8189 23.3846 12.8189C22.11 12.8189 21.0769 11.7858 21.0769 10.5112C21.0769 9.23658 22.11 8.2035 23.3846 8.2035ZM23.3846 18.9727C22.0231 18.9727 20.8346 19.6843 20.1508 20.7512L16.0315 18.3974C16.2977 17.8743 16.4615 17.2912 16.4615 16.665C16.4615 16.2781 16.3869 15.912 16.2808 15.5596L20.5662 13.1112C21.2685 13.8727 22.2669 14.3573 23.3846 14.3573C25.5092 14.3573 27.2308 12.6358 27.2308 10.5112C27.2308 8.38658 25.5092 6.66504 23.3846 6.66504C21.26 6.66504 19.5385 8.38658 19.5385 10.5112C19.5385 10.8981 19.6131 11.2643 19.7192 11.6173L15.4339 14.065C14.7315 13.3043 13.7331 12.8189 12.6154 12.8189C10.4908 12.8189 8.76923 14.5404 8.76923 16.665C8.76923 18.7897 10.4908 20.5112 12.6154 20.5112C13.4923 20.5112 14.2915 20.2066 14.9385 19.7127L14.9231 19.742L19.5808 22.4035C19.5654 22.542 19.5385 22.6758 19.5385 22.8189C19.5385 24.9435 21.26 26.665 23.3846 26.665C25.5092 26.665 27.2308 24.9435 27.2308 22.8189C27.2308 20.6943 25.5092 18.9727 23.3846 18.9727Z" fill="#686868"/>
</g>
<defs>
<clipPath id="clip0_115_61">
<rect width="20" height="20" fill="white" transform="translate(8 6.66504)"/>
</clipPath>
</defs>
</svg>
