<svg width="32" height="32" viewBox="0 0 32 32" fill="none" xmlns="http://www.w3.org/2000/svg">
<rect width="32" height="32" rx="16" fill="#F1F1EF"/>
<path d="M24.989 11.916C24.6933 11.916 24.4534 11.6761 24.4534 11.3804V7.68741C24.4534 7.34759 24.177 7.07114 23.8373 7.07114H20.1442C19.8485 7.07114 19.6086 6.8313 19.6086 6.53557C19.6086 6.23984 19.8485 6 20.1442 6H23.8373C24.7677 6 25.5245 6.75703 25.5245 7.68743V11.3804C25.5245 11.6761 25.2847 11.916 24.989 11.916Z" fill="#263238"/>
<path d="M23.8373 25.0501H20.1442C19.8485 25.0501 19.6086 24.8103 19.6086 24.5146C19.6086 24.2188 19.8485 23.9789 20.1442 23.9789H23.8373C24.177 23.9789 24.4534 23.7026 24.4534 23.3628V19.6699C24.4534 19.3741 24.6933 19.1343 24.989 19.1343C25.2847 19.1343 25.5245 19.3741 25.5245 19.6699V23.3628C25.5245 24.2932 24.7677 25.0501 23.8373 25.0501Z" fill="#263238"/>
<path d="M11.8566 25.0501H8.16347C7.23309 25.0501 6.4762 24.2932 6.4762 23.3628V19.6699C6.4762 19.3741 6.71604 19.1343 7.01177 19.1343C7.3075 19.1343 7.54734 19.3741 7.54734 19.6699V23.3628C7.54734 23.7026 7.82379 23.9789 8.16345 23.9789H11.8566C12.1523 23.9789 12.3922 24.2188 12.3922 24.5146C12.3922 24.8103 12.1523 25.0501 11.8566 25.0501Z" fill="#263238"/>
<path d="M7.01177 11.916C6.71604 11.916 6.4762 11.6762 6.4762 11.3804V7.68743C6.4762 6.75705 7.23309 6 8.16347 6H11.8566C12.1523 6 12.3922 6.23984 12.3922 6.53557C12.3922 6.8313 12.1523 7.07116 11.8566 7.07116H8.16347C7.82381 7.07116 7.54736 7.34761 7.54736 7.68743V11.3804C7.54734 11.6762 7.3075 11.916 7.01177 11.916Z" fill="#263238"/>
</svg>
