<svg width="20" height="20" viewBox="0 0 20 20" fill="none" xmlns="http://www.w3.org/2000/svg">
<path d="M14.1125 6.74496C13.9122 5.28348 13.1655 3.95217 12.023 3.01909C10.8804 2.08601 9.4268 1.62045 7.95475 1.71616C6.48271 1.81186 5.10159 2.46172 4.08947 3.5349C3.07736 4.60807 2.50942 6.02484 2.5 7.49996V17.5C2.5 17.721 2.5878 17.9329 2.74408 18.0892C2.90036 18.2455 3.11232 18.3333 3.33333 18.3333C3.55435 18.3333 3.76631 18.2455 3.92259 18.0892C4.07887 17.9329 4.16667 17.721 4.16667 17.5V7.49996C4.16513 6.4575 4.55497 5.45243 5.25904 4.68365C5.96311 3.91487 6.93012 3.43839 7.9687 3.3485C9.00729 3.25861 10.0418 3.56185 10.8675 4.19822C11.6932 4.8346 12.2499 5.75774 12.4275 6.78496C11.4884 7.02137 10.6561 7.56688 10.0646 8.33371C9.4731 9.10053 9.15683 10.0441 9.16667 11.0125V12.0833C9.16667 12.3043 9.25446 12.5163 9.41074 12.6726C9.56702 12.8288 9.77899 12.9166 10 12.9166H16.6667C16.8877 12.9166 17.0996 12.8288 17.2559 12.6726C17.4122 12.5163 17.5 12.3043 17.5 12.0833V10.8333C17.4989 9.86425 17.16 8.9259 16.5417 8.17971C15.9235 7.43353 15.0645 6.92617 14.1125 6.74496Z" fill="black"/>
<path d="M13.3333 15C13.1123 15 12.9004 15.0878 12.7441 15.2441C12.5878 15.4004 12.5 15.6123 12.5 15.8333V17.5C12.5 17.721 12.5878 17.933 12.7441 18.0893C12.9004 18.2455 13.1123 18.3333 13.3333 18.3333C13.5543 18.3333 13.7663 18.2455 13.9226 18.0893C14.0789 17.933 14.1667 17.721 14.1667 17.5V15.8333C14.1667 15.6123 14.0789 15.4004 13.9226 15.2441C13.7663 15.0878 13.5543 15 13.3333 15Z" fill="black"/>
<path d="M16.6667 15C16.4457 15 16.2337 15.0878 16.0775 15.2441C15.9212 15.4004 15.8334 15.6123 15.8334 15.8333V17.5C15.8334 17.721 15.9212 17.933 16.0775 18.0893C16.2337 18.2455 16.4457 18.3333 16.6667 18.3333C16.8877 18.3333 17.0997 18.2455 17.256 18.0893C17.4122 17.933 17.5 17.721 17.5 17.5V15.8333C17.5 15.6123 17.4122 15.4004 17.256 15.2441C17.0997 15.0878 16.8877 15 16.6667 15Z" fill="black"/>
<path d="M9.99996 15C9.77895 15 9.56698 15.0878 9.4107 15.2441C9.25442 15.4004 9.16663 15.6123 9.16663 15.8333V17.5C9.16663 17.721 9.25442 17.933 9.4107 18.0893C9.56698 18.2455 9.77895 18.3333 9.99996 18.3333C10.221 18.3333 10.4329 18.2455 10.5892 18.0893C10.7455 17.933 10.8333 17.721 10.8333 17.5V15.8333C10.8333 15.6123 10.7455 15.4004 10.5892 15.2441C10.4329 15.0878 10.221 15 9.99996 15Z" fill="black"/>
</svg>
